<mxfile host="app.diagrams.net" modified="2021-10-14T05:42:19.376Z" agent="5.0 (Windows)" etag="bfXdhNzq3xwP6KNeK9VS" version="15.5.2" type="github">
  <diagram id="DzECSvU7NwYgkoOeOgAR" name="Page-1">
    <mxGraphModel dx="868" dy="460" grid="1" gridSize="10" guides="1" tooltips="1" connect="1" arrows="1" fold="1" page="1" pageScale="1" pageWidth="827" pageHeight="1169" math="0" shadow="0">
      <root>
        <mxCell id="0" />
        <mxCell id="1" parent="0" />
        <mxCell id="Vf63_TqQqZUZ0cF1td8W-25" value="Pool" style="swimlane;html=1;childLayout=stackLayout;resizeParent=1;resizeParentMax=0;horizontal=1;startSize=20;horizontalStack=0;" vertex="1" parent="1">
          <mxGeometry x="70" y="40" width="480" height="500" as="geometry" />
        </mxCell>
        <mxCell id="Vf63_TqQqZUZ0cF1td8W-26" value="Lane 1" style="swimlane;html=1;startSize=20;horizontal=0;" vertex="1" parent="Vf63_TqQqZUZ0cF1td8W-25">
          <mxGeometry y="20" width="480" height="120" as="geometry" />
        </mxCell>
        <mxCell id="Vf63_TqQqZUZ0cF1td8W-27" value="Lane 2" style="swimlane;html=1;startSize=20;horizontal=0;" vertex="1" parent="Vf63_TqQqZUZ0cF1td8W-25">
          <mxGeometry y="140" width="480" height="120" as="geometry" />
        </mxCell>
        <mxCell id="Vf63_TqQqZUZ0cF1td8W-28" value="Lane 3" style="swimlane;html=1;startSize=20;horizontal=0;" vertex="1" parent="Vf63_TqQqZUZ0cF1td8W-25">
          <mxGeometry y="260" width="480" height="120" as="geometry" />
        </mxCell>
        <mxCell id="Vf63_TqQqZUZ0cF1td8W-31" value="Lane 3" style="swimlane;html=1;startSize=20;horizontal=0;" vertex="1" parent="Vf63_TqQqZUZ0cF1td8W-25">
          <mxGeometry y="380" width="480" height="120" as="geometry" />
        </mxCell>
      </root>
    </mxGraphModel>
  </diagram>
</mxfile>
